<mxfile host="app.diagrams.net" modified="2021-01-31T10:54:27.402Z" agent="5.0 (Windows NT 10.0; Win64; x64) AppleWebKit/537.36 (KHTML, like Gecko) Chrome/88.0.4324.104 Safari/537.36" etag="5coATEsWmVebkMFlHsVy" version="14.2.7" type="github">
  <diagram id="R2lEEEUBdFMjLlhIrx00" name="Page-1">
    <mxGraphModel dx="1422" dy="742" grid="1" gridSize="10" guides="1" tooltips="1" connect="1" arrows="1" fold="1" page="1" pageScale="1" pageWidth="850" pageHeight="1100" math="0" shadow="0" extFonts="Permanent Marker^https://fonts.googleapis.com/css?family=Permanent+Marker">
      <root>
        <mxCell id="0" />
        <mxCell id="1" parent="0" />
        <mxCell id="C-vyLk0tnHw3VtMMgP7b-13" value="user" style="shape=table;startSize=30;container=1;collapsible=1;childLayout=tableLayout;fixedRows=1;rowLines=0;fontStyle=1;align=center;resizeLast=1;" parent="1" vertex="1">
          <mxGeometry x="30" y="60" width="220" height="150" as="geometry" />
        </mxCell>
        <mxCell id="C-vyLk0tnHw3VtMMgP7b-14" value="" style="shape=partialRectangle;collapsible=0;dropTarget=0;pointerEvents=0;fillColor=none;points=[[0,0.5],[1,0.5]];portConstraint=eastwest;top=0;left=0;right=0;bottom=1;" parent="C-vyLk0tnHw3VtMMgP7b-13" vertex="1">
          <mxGeometry y="30" width="220" height="30" as="geometry" />
        </mxCell>
        <mxCell id="C-vyLk0tnHw3VtMMgP7b-15" value="PK" style="shape=partialRectangle;overflow=hidden;connectable=0;fillColor=none;top=0;left=0;bottom=0;right=0;fontStyle=1;" parent="C-vyLk0tnHw3VtMMgP7b-14" vertex="1">
          <mxGeometry width="30" height="30" as="geometry" />
        </mxCell>
        <mxCell id="C-vyLk0tnHw3VtMMgP7b-16" value="id" style="shape=partialRectangle;overflow=hidden;connectable=0;fillColor=none;top=0;left=0;bottom=0;right=0;align=left;spacingLeft=6;fontStyle=5;" parent="C-vyLk0tnHw3VtMMgP7b-14" vertex="1">
          <mxGeometry x="30" width="190" height="30" as="geometry" />
        </mxCell>
        <mxCell id="C-vyLk0tnHw3VtMMgP7b-17" value="" style="shape=partialRectangle;collapsible=0;dropTarget=0;pointerEvents=0;fillColor=none;points=[[0,0.5],[1,0.5]];portConstraint=eastwest;top=0;left=0;right=0;bottom=0;" parent="C-vyLk0tnHw3VtMMgP7b-13" vertex="1">
          <mxGeometry y="60" width="220" height="30" as="geometry" />
        </mxCell>
        <mxCell id="C-vyLk0tnHw3VtMMgP7b-18" value="" style="shape=partialRectangle;overflow=hidden;connectable=0;fillColor=none;top=0;left=0;bottom=0;right=0;" parent="C-vyLk0tnHw3VtMMgP7b-17" vertex="1">
          <mxGeometry width="30" height="30" as="geometry" />
        </mxCell>
        <mxCell id="C-vyLk0tnHw3VtMMgP7b-19" value="name char(30) not null" style="shape=partialRectangle;overflow=hidden;connectable=0;fillColor=none;top=0;left=0;bottom=0;right=0;align=left;spacingLeft=6;" parent="C-vyLk0tnHw3VtMMgP7b-17" vertex="1">
          <mxGeometry x="30" width="190" height="30" as="geometry" />
        </mxCell>
        <mxCell id="C-vyLk0tnHw3VtMMgP7b-20" value="" style="shape=partialRectangle;collapsible=0;dropTarget=0;pointerEvents=0;fillColor=none;points=[[0,0.5],[1,0.5]];portConstraint=eastwest;top=0;left=0;right=0;bottom=0;" parent="C-vyLk0tnHw3VtMMgP7b-13" vertex="1">
          <mxGeometry y="90" width="220" height="30" as="geometry" />
        </mxCell>
        <mxCell id="C-vyLk0tnHw3VtMMgP7b-21" value="" style="shape=partialRectangle;overflow=hidden;connectable=0;fillColor=none;top=0;left=0;bottom=0;right=0;" parent="C-vyLk0tnHw3VtMMgP7b-20" vertex="1">
          <mxGeometry width="30" height="30" as="geometry" />
        </mxCell>
        <mxCell id="C-vyLk0tnHw3VtMMgP7b-22" value="lastname char(30) not null" style="shape=partialRectangle;overflow=hidden;connectable=0;fillColor=none;top=0;left=0;bottom=0;right=0;align=left;spacingLeft=6;" parent="C-vyLk0tnHw3VtMMgP7b-20" vertex="1">
          <mxGeometry x="30" width="190" height="30" as="geometry" />
        </mxCell>
        <mxCell id="BQBNPFfTGPCwCgeA7Mjn-11" value="" style="shape=partialRectangle;collapsible=0;dropTarget=0;pointerEvents=0;fillColor=none;points=[[0,0.5],[1,0.5]];portConstraint=eastwest;top=0;left=0;right=0;bottom=0;" vertex="1" parent="C-vyLk0tnHw3VtMMgP7b-13">
          <mxGeometry y="120" width="220" height="30" as="geometry" />
        </mxCell>
        <mxCell id="BQBNPFfTGPCwCgeA7Mjn-12" value="" style="shape=partialRectangle;overflow=hidden;connectable=0;fillColor=none;top=0;left=0;bottom=0;right=0;" vertex="1" parent="BQBNPFfTGPCwCgeA7Mjn-11">
          <mxGeometry width="30" height="30" as="geometry" />
        </mxCell>
        <mxCell id="BQBNPFfTGPCwCgeA7Mjn-13" value="email char(40) not null" style="shape=partialRectangle;overflow=hidden;connectable=0;fillColor=none;top=0;left=0;bottom=0;right=0;align=left;spacingLeft=6;" vertex="1" parent="BQBNPFfTGPCwCgeA7Mjn-11">
          <mxGeometry x="30" width="190" height="30" as="geometry" />
        </mxCell>
        <mxCell id="BQBNPFfTGPCwCgeA7Mjn-1" value="conference" style="shape=table;startSize=30;container=1;collapsible=1;childLayout=tableLayout;fixedRows=1;rowLines=0;fontStyle=1;align=center;resizeLast=1;" vertex="1" parent="1">
          <mxGeometry x="540" y="60" width="250" height="230" as="geometry" />
        </mxCell>
        <mxCell id="BQBNPFfTGPCwCgeA7Mjn-2" value="" style="shape=partialRectangle;collapsible=0;dropTarget=0;pointerEvents=0;fillColor=none;points=[[0,0.5],[1,0.5]];portConstraint=eastwest;top=0;left=0;right=0;bottom=1;" vertex="1" parent="BQBNPFfTGPCwCgeA7Mjn-1">
          <mxGeometry y="30" width="250" height="30" as="geometry" />
        </mxCell>
        <mxCell id="BQBNPFfTGPCwCgeA7Mjn-3" value="PK" style="shape=partialRectangle;overflow=hidden;connectable=0;fillColor=none;top=0;left=0;bottom=0;right=0;fontStyle=1;" vertex="1" parent="BQBNPFfTGPCwCgeA7Mjn-2">
          <mxGeometry width="30" height="30" as="geometry" />
        </mxCell>
        <mxCell id="BQBNPFfTGPCwCgeA7Mjn-4" value="id" style="shape=partialRectangle;overflow=hidden;connectable=0;fillColor=none;top=0;left=0;bottom=0;right=0;align=left;spacingLeft=6;fontStyle=5;" vertex="1" parent="BQBNPFfTGPCwCgeA7Mjn-2">
          <mxGeometry x="30" width="220" height="30" as="geometry" />
        </mxCell>
        <mxCell id="BQBNPFfTGPCwCgeA7Mjn-5" value="" style="shape=partialRectangle;collapsible=0;dropTarget=0;pointerEvents=0;fillColor=none;points=[[0,0.5],[1,0.5]];portConstraint=eastwest;top=0;left=0;right=0;bottom=0;" vertex="1" parent="BQBNPFfTGPCwCgeA7Mjn-1">
          <mxGeometry y="60" width="250" height="30" as="geometry" />
        </mxCell>
        <mxCell id="BQBNPFfTGPCwCgeA7Mjn-6" value="" style="shape=partialRectangle;overflow=hidden;connectable=0;fillColor=none;top=0;left=0;bottom=0;right=0;" vertex="1" parent="BQBNPFfTGPCwCgeA7Mjn-5">
          <mxGeometry width="30" height="30" as="geometry" />
        </mxCell>
        <mxCell id="BQBNPFfTGPCwCgeA7Mjn-7" value="begin_date date not null" style="shape=partialRectangle;overflow=hidden;connectable=0;fillColor=none;top=0;left=0;bottom=0;right=0;align=left;spacingLeft=6;" vertex="1" parent="BQBNPFfTGPCwCgeA7Mjn-5">
          <mxGeometry x="30" width="220" height="30" as="geometry" />
        </mxCell>
        <mxCell id="BQBNPFfTGPCwCgeA7Mjn-8" value="" style="shape=partialRectangle;collapsible=0;dropTarget=0;pointerEvents=0;fillColor=none;points=[[0,0.5],[1,0.5]];portConstraint=eastwest;top=0;left=0;right=0;bottom=0;" vertex="1" parent="BQBNPFfTGPCwCgeA7Mjn-1">
          <mxGeometry y="90" width="250" height="30" as="geometry" />
        </mxCell>
        <mxCell id="BQBNPFfTGPCwCgeA7Mjn-9" value="" style="shape=partialRectangle;overflow=hidden;connectable=0;fillColor=none;top=0;left=0;bottom=0;right=0;" vertex="1" parent="BQBNPFfTGPCwCgeA7Mjn-8">
          <mxGeometry width="30" height="30" as="geometry" />
        </mxCell>
        <mxCell id="BQBNPFfTGPCwCgeA7Mjn-10" value="end_date date null?" style="shape=partialRectangle;overflow=hidden;connectable=0;fillColor=none;top=0;left=0;bottom=0;right=0;align=left;spacingLeft=6;" vertex="1" parent="BQBNPFfTGPCwCgeA7Mjn-8">
          <mxGeometry x="30" width="220" height="30" as="geometry" />
        </mxCell>
        <mxCell id="BQBNPFfTGPCwCgeA7Mjn-17" value="" style="shape=partialRectangle;collapsible=0;dropTarget=0;pointerEvents=0;fillColor=none;points=[[0,0.5],[1,0.5]];portConstraint=eastwest;top=0;left=0;right=0;bottom=0;" vertex="1" parent="BQBNPFfTGPCwCgeA7Mjn-1">
          <mxGeometry y="120" width="250" height="30" as="geometry" />
        </mxCell>
        <mxCell id="BQBNPFfTGPCwCgeA7Mjn-18" value="" style="shape=partialRectangle;overflow=hidden;connectable=0;fillColor=none;top=0;left=0;bottom=0;right=0;" vertex="1" parent="BQBNPFfTGPCwCgeA7Mjn-17">
          <mxGeometry width="30" height="30" as="geometry" />
        </mxCell>
        <mxCell id="BQBNPFfTGPCwCgeA7Mjn-19" value="name char(200) not null" style="shape=partialRectangle;overflow=hidden;connectable=0;fillColor=none;top=0;left=0;bottom=0;right=0;align=left;spacingLeft=6;" vertex="1" parent="BQBNPFfTGPCwCgeA7Mjn-17">
          <mxGeometry x="30" width="220" height="30" as="geometry" />
        </mxCell>
        <mxCell id="BQBNPFfTGPCwCgeA7Mjn-20" value="" style="shape=partialRectangle;collapsible=0;dropTarget=0;pointerEvents=0;fillColor=none;points=[[0,0.5],[1,0.5]];portConstraint=eastwest;top=0;left=0;right=0;bottom=0;" vertex="1" parent="BQBNPFfTGPCwCgeA7Mjn-1">
          <mxGeometry y="150" width="250" height="30" as="geometry" />
        </mxCell>
        <mxCell id="BQBNPFfTGPCwCgeA7Mjn-21" value="" style="shape=partialRectangle;overflow=hidden;connectable=0;fillColor=none;top=0;left=0;bottom=0;right=0;" vertex="1" parent="BQBNPFfTGPCwCgeA7Mjn-20">
          <mxGeometry width="30" height="30" as="geometry" />
        </mxCell>
        <mxCell id="BQBNPFfTGPCwCgeA7Mjn-22" value="theme char(200) not null" style="shape=partialRectangle;overflow=hidden;connectable=0;fillColor=none;top=0;left=0;bottom=0;right=0;align=left;spacingLeft=6;" vertex="1" parent="BQBNPFfTGPCwCgeA7Mjn-20">
          <mxGeometry x="30" width="220" height="30" as="geometry" />
        </mxCell>
        <mxCell id="BQBNPFfTGPCwCgeA7Mjn-23" value="" style="shape=partialRectangle;collapsible=0;dropTarget=0;pointerEvents=0;fillColor=none;points=[[0,0.5],[1,0.5]];portConstraint=eastwest;top=0;left=0;right=0;bottom=0;" vertex="1" parent="BQBNPFfTGPCwCgeA7Mjn-1">
          <mxGeometry y="180" width="250" height="20" as="geometry" />
        </mxCell>
        <mxCell id="BQBNPFfTGPCwCgeA7Mjn-24" value="" style="shape=partialRectangle;overflow=hidden;connectable=0;fillColor=none;top=0;left=0;bottom=0;right=0;" vertex="1" parent="BQBNPFfTGPCwCgeA7Mjn-23">
          <mxGeometry width="30" height="20" as="geometry" />
        </mxCell>
        <mxCell id="BQBNPFfTGPCwCgeA7Mjn-25" value="place char(100) not null" style="shape=partialRectangle;overflow=hidden;connectable=0;fillColor=none;top=0;left=0;bottom=0;right=0;align=left;spacingLeft=6;" vertex="1" parent="BQBNPFfTGPCwCgeA7Mjn-23">
          <mxGeometry x="30" width="220" height="20" as="geometry" />
        </mxCell>
        <mxCell id="BQBNPFfTGPCwCgeA7Mjn-26" value="user_conference" style="shape=table;startSize=30;container=1;collapsible=1;childLayout=tableLayout;fixedRows=1;rowLines=0;fontStyle=1;align=center;resizeLast=1;" vertex="1" parent="1">
          <mxGeometry x="290" y="60" width="230" height="180" as="geometry" />
        </mxCell>
        <mxCell id="BQBNPFfTGPCwCgeA7Mjn-27" value="" style="shape=partialRectangle;collapsible=0;dropTarget=0;pointerEvents=0;fillColor=none;points=[[0,0.5],[1,0.5]];portConstraint=eastwest;top=0;left=0;right=0;bottom=1;" vertex="1" parent="BQBNPFfTGPCwCgeA7Mjn-26">
          <mxGeometry y="30" width="230" height="30" as="geometry" />
        </mxCell>
        <mxCell id="BQBNPFfTGPCwCgeA7Mjn-28" value="PK" style="shape=partialRectangle;overflow=hidden;connectable=0;fillColor=none;top=0;left=0;bottom=0;right=0;fontStyle=1;" vertex="1" parent="BQBNPFfTGPCwCgeA7Mjn-27">
          <mxGeometry width="30" height="30" as="geometry" />
        </mxCell>
        <mxCell id="BQBNPFfTGPCwCgeA7Mjn-29" value="id" style="shape=partialRectangle;overflow=hidden;connectable=0;fillColor=none;top=0;left=0;bottom=0;right=0;align=left;spacingLeft=6;fontStyle=5;" vertex="1" parent="BQBNPFfTGPCwCgeA7Mjn-27">
          <mxGeometry x="30" width="200" height="30" as="geometry" />
        </mxCell>
        <mxCell id="BQBNPFfTGPCwCgeA7Mjn-30" value="" style="shape=partialRectangle;collapsible=0;dropTarget=0;pointerEvents=0;fillColor=none;points=[[0,0.5],[1,0.5]];portConstraint=eastwest;top=0;left=0;right=0;bottom=0;" vertex="1" parent="BQBNPFfTGPCwCgeA7Mjn-26">
          <mxGeometry y="60" width="230" height="30" as="geometry" />
        </mxCell>
        <mxCell id="BQBNPFfTGPCwCgeA7Mjn-31" value="FK" style="shape=partialRectangle;overflow=hidden;connectable=0;fillColor=none;top=0;left=0;bottom=0;right=0;" vertex="1" parent="BQBNPFfTGPCwCgeA7Mjn-30">
          <mxGeometry width="30" height="30" as="geometry" />
        </mxCell>
        <mxCell id="BQBNPFfTGPCwCgeA7Mjn-32" value="user_id int not null" style="shape=partialRectangle;overflow=hidden;connectable=0;fillColor=none;top=0;left=0;bottom=0;right=0;align=left;spacingLeft=6;" vertex="1" parent="BQBNPFfTGPCwCgeA7Mjn-30">
          <mxGeometry x="30" width="200" height="30" as="geometry" />
        </mxCell>
        <mxCell id="BQBNPFfTGPCwCgeA7Mjn-33" value="" style="shape=partialRectangle;collapsible=0;dropTarget=0;pointerEvents=0;fillColor=none;points=[[0,0.5],[1,0.5]];portConstraint=eastwest;top=0;left=0;right=0;bottom=0;" vertex="1" parent="BQBNPFfTGPCwCgeA7Mjn-26">
          <mxGeometry y="90" width="230" height="30" as="geometry" />
        </mxCell>
        <mxCell id="BQBNPFfTGPCwCgeA7Mjn-34" value="FK" style="shape=partialRectangle;overflow=hidden;connectable=0;fillColor=none;top=0;left=0;bottom=0;right=0;" vertex="1" parent="BQBNPFfTGPCwCgeA7Mjn-33">
          <mxGeometry width="30" height="30" as="geometry" />
        </mxCell>
        <mxCell id="BQBNPFfTGPCwCgeA7Mjn-35" value="conference_id int not null" style="shape=partialRectangle;overflow=hidden;connectable=0;fillColor=none;top=0;left=0;bottom=0;right=0;align=left;spacingLeft=6;" vertex="1" parent="BQBNPFfTGPCwCgeA7Mjn-33">
          <mxGeometry x="30" width="200" height="30" as="geometry" />
        </mxCell>
        <mxCell id="BQBNPFfTGPCwCgeA7Mjn-36" value="" style="shape=partialRectangle;collapsible=0;dropTarget=0;pointerEvents=0;fillColor=none;points=[[0,0.5],[1,0.5]];portConstraint=eastwest;top=0;left=0;right=0;bottom=0;" vertex="1" parent="BQBNPFfTGPCwCgeA7Mjn-26">
          <mxGeometry y="120" width="230" height="30" as="geometry" />
        </mxCell>
        <mxCell id="BQBNPFfTGPCwCgeA7Mjn-37" value="" style="shape=partialRectangle;overflow=hidden;connectable=0;fillColor=none;top=0;left=0;bottom=0;right=0;" vertex="1" parent="BQBNPFfTGPCwCgeA7Mjn-36">
          <mxGeometry width="30" height="30" as="geometry" />
        </mxCell>
        <mxCell id="BQBNPFfTGPCwCgeA7Mjn-38" value="has_paid bool default false" style="shape=partialRectangle;overflow=hidden;connectable=0;fillColor=none;top=0;left=0;bottom=0;right=0;align=left;spacingLeft=6;" vertex="1" parent="BQBNPFfTGPCwCgeA7Mjn-36">
          <mxGeometry x="30" width="200" height="30" as="geometry" />
        </mxCell>
        <mxCell id="BQBNPFfTGPCwCgeA7Mjn-39" value="" style="shape=partialRectangle;collapsible=0;dropTarget=0;pointerEvents=0;fillColor=none;points=[[0,0.5],[1,0.5]];portConstraint=eastwest;top=0;left=0;right=0;bottom=0;" vertex="1" parent="BQBNPFfTGPCwCgeA7Mjn-26">
          <mxGeometry y="150" width="230" height="30" as="geometry" />
        </mxCell>
        <mxCell id="BQBNPFfTGPCwCgeA7Mjn-40" value="" style="shape=partialRectangle;overflow=hidden;connectable=0;fillColor=none;top=0;left=0;bottom=0;right=0;" vertex="1" parent="BQBNPFfTGPCwCgeA7Mjn-39">
          <mxGeometry width="30" height="30" as="geometry" />
        </mxCell>
        <mxCell id="BQBNPFfTGPCwCgeA7Mjn-41" value="role char(20) default user" style="shape=partialRectangle;overflow=hidden;connectable=0;fillColor=none;top=0;left=0;bottom=0;right=0;align=left;spacingLeft=6;" vertex="1" parent="BQBNPFfTGPCwCgeA7Mjn-39">
          <mxGeometry x="30" width="200" height="30" as="geometry" />
        </mxCell>
        <mxCell id="BQBNPFfTGPCwCgeA7Mjn-42" value="thesis" style="shape=table;startSize=30;container=1;collapsible=1;childLayout=tableLayout;fixedRows=1;rowLines=0;fontStyle=1;align=center;resizeLast=1;" vertex="1" parent="1">
          <mxGeometry x="60" y="340" width="220" height="240" as="geometry" />
        </mxCell>
        <mxCell id="BQBNPFfTGPCwCgeA7Mjn-43" value="" style="shape=partialRectangle;collapsible=0;dropTarget=0;pointerEvents=0;fillColor=none;points=[[0,0.5],[1,0.5]];portConstraint=eastwest;top=0;left=0;right=0;bottom=1;" vertex="1" parent="BQBNPFfTGPCwCgeA7Mjn-42">
          <mxGeometry y="30" width="220" height="30" as="geometry" />
        </mxCell>
        <mxCell id="BQBNPFfTGPCwCgeA7Mjn-44" value="PK" style="shape=partialRectangle;overflow=hidden;connectable=0;fillColor=none;top=0;left=0;bottom=0;right=0;fontStyle=1;" vertex="1" parent="BQBNPFfTGPCwCgeA7Mjn-43">
          <mxGeometry width="30" height="30" as="geometry" />
        </mxCell>
        <mxCell id="BQBNPFfTGPCwCgeA7Mjn-45" value="id" style="shape=partialRectangle;overflow=hidden;connectable=0;fillColor=none;top=0;left=0;bottom=0;right=0;align=left;spacingLeft=6;fontStyle=5;" vertex="1" parent="BQBNPFfTGPCwCgeA7Mjn-43">
          <mxGeometry x="30" width="190" height="30" as="geometry" />
        </mxCell>
        <mxCell id="BQBNPFfTGPCwCgeA7Mjn-46" value="" style="shape=partialRectangle;collapsible=0;dropTarget=0;pointerEvents=0;fillColor=none;points=[[0,0.5],[1,0.5]];portConstraint=eastwest;top=0;left=0;right=0;bottom=0;" vertex="1" parent="BQBNPFfTGPCwCgeA7Mjn-42">
          <mxGeometry y="60" width="220" height="30" as="geometry" />
        </mxCell>
        <mxCell id="BQBNPFfTGPCwCgeA7Mjn-47" value="" style="shape=partialRectangle;overflow=hidden;connectable=0;fillColor=none;top=0;left=0;bottom=0;right=0;" vertex="1" parent="BQBNPFfTGPCwCgeA7Mjn-46">
          <mxGeometry width="30" height="30" as="geometry" />
        </mxCell>
        <mxCell id="BQBNPFfTGPCwCgeA7Mjn-48" value="name char(100) not null" style="shape=partialRectangle;overflow=hidden;connectable=0;fillColor=none;top=0;left=0;bottom=0;right=0;align=left;spacingLeft=6;" vertex="1" parent="BQBNPFfTGPCwCgeA7Mjn-46">
          <mxGeometry x="30" width="190" height="30" as="geometry" />
        </mxCell>
        <mxCell id="BQBNPFfTGPCwCgeA7Mjn-49" value="" style="shape=partialRectangle;collapsible=0;dropTarget=0;pointerEvents=0;fillColor=none;points=[[0,0.5],[1,0.5]];portConstraint=eastwest;top=0;left=0;right=0;bottom=0;" vertex="1" parent="BQBNPFfTGPCwCgeA7Mjn-42">
          <mxGeometry y="90" width="220" height="30" as="geometry" />
        </mxCell>
        <mxCell id="BQBNPFfTGPCwCgeA7Mjn-50" value="" style="shape=partialRectangle;overflow=hidden;connectable=0;fillColor=none;top=0;left=0;bottom=0;right=0;" vertex="1" parent="BQBNPFfTGPCwCgeA7Mjn-49">
          <mxGeometry width="30" height="30" as="geometry" />
        </mxCell>
        <mxCell id="BQBNPFfTGPCwCgeA7Mjn-51" value="short_info char(300) " style="shape=partialRectangle;overflow=hidden;connectable=0;fillColor=none;top=0;left=0;bottom=0;right=0;align=left;spacingLeft=6;" vertex="1" parent="BQBNPFfTGPCwCgeA7Mjn-49">
          <mxGeometry x="30" width="190" height="30" as="geometry" />
        </mxCell>
        <mxCell id="BQBNPFfTGPCwCgeA7Mjn-52" value="" style="shape=partialRectangle;collapsible=0;dropTarget=0;pointerEvents=0;fillColor=none;points=[[0,0.5],[1,0.5]];portConstraint=eastwest;top=0;left=0;right=0;bottom=0;" vertex="1" parent="BQBNPFfTGPCwCgeA7Mjn-42">
          <mxGeometry y="120" width="220" height="30" as="geometry" />
        </mxCell>
        <mxCell id="BQBNPFfTGPCwCgeA7Mjn-53" value="FK" style="shape=partialRectangle;overflow=hidden;connectable=0;fillColor=none;top=0;left=0;bottom=0;right=0;" vertex="1" parent="BQBNPFfTGPCwCgeA7Mjn-52">
          <mxGeometry width="30" height="30" as="geometry" />
        </mxCell>
        <mxCell id="BQBNPFfTGPCwCgeA7Mjn-54" value="user_id int not null" style="shape=partialRectangle;overflow=hidden;connectable=0;fillColor=none;top=0;left=0;bottom=0;right=0;align=left;spacingLeft=6;" vertex="1" parent="BQBNPFfTGPCwCgeA7Mjn-52">
          <mxGeometry x="30" width="190" height="30" as="geometry" />
        </mxCell>
        <mxCell id="BQBNPFfTGPCwCgeA7Mjn-55" value="" style="shape=partialRectangle;collapsible=0;dropTarget=0;pointerEvents=0;fillColor=none;points=[[0,0.5],[1,0.5]];portConstraint=eastwest;top=0;left=0;right=0;bottom=0;" vertex="1" parent="BQBNPFfTGPCwCgeA7Mjn-42">
          <mxGeometry y="150" width="220" height="30" as="geometry" />
        </mxCell>
        <mxCell id="BQBNPFfTGPCwCgeA7Mjn-56" value="FK" style="shape=partialRectangle;overflow=hidden;connectable=0;fillColor=none;top=0;left=0;bottom=0;right=0;" vertex="1" parent="BQBNPFfTGPCwCgeA7Mjn-55">
          <mxGeometry width="30" height="30" as="geometry" />
        </mxCell>
        <mxCell id="BQBNPFfTGPCwCgeA7Mjn-57" value="conference_id int" style="shape=partialRectangle;overflow=hidden;connectable=0;fillColor=none;top=0;left=0;bottom=0;right=0;align=left;spacingLeft=6;" vertex="1" parent="BQBNPFfTGPCwCgeA7Mjn-55">
          <mxGeometry x="30" width="190" height="30" as="geometry" />
        </mxCell>
        <mxCell id="BQBNPFfTGPCwCgeA7Mjn-58" value="" style="shape=partialRectangle;collapsible=0;dropTarget=0;pointerEvents=0;fillColor=none;points=[[0,0.5],[1,0.5]];portConstraint=eastwest;top=0;left=0;right=0;bottom=0;" vertex="1" parent="BQBNPFfTGPCwCgeA7Mjn-42">
          <mxGeometry y="180" width="220" height="30" as="geometry" />
        </mxCell>
        <mxCell id="BQBNPFfTGPCwCgeA7Mjn-59" value="" style="shape=partialRectangle;overflow=hidden;connectable=0;fillColor=none;top=0;left=0;bottom=0;right=0;" vertex="1" parent="BQBNPFfTGPCwCgeA7Mjn-58">
          <mxGeometry width="30" height="30" as="geometry" />
        </mxCell>
        <mxCell id="BQBNPFfTGPCwCgeA7Mjn-60" value="is_approved bool default false" style="shape=partialRectangle;overflow=hidden;connectable=0;fillColor=none;top=0;left=0;bottom=0;right=0;align=left;spacingLeft=6;" vertex="1" parent="BQBNPFfTGPCwCgeA7Mjn-58">
          <mxGeometry x="30" width="190" height="30" as="geometry" />
        </mxCell>
        <mxCell id="BQBNPFfTGPCwCgeA7Mjn-80" value="" style="shape=partialRectangle;collapsible=0;dropTarget=0;pointerEvents=0;fillColor=none;points=[[0,0.5],[1,0.5]];portConstraint=eastwest;top=0;left=0;right=0;bottom=0;" vertex="1" parent="BQBNPFfTGPCwCgeA7Mjn-42">
          <mxGeometry y="210" width="220" height="30" as="geometry" />
        </mxCell>
        <mxCell id="BQBNPFfTGPCwCgeA7Mjn-81" value="" style="shape=partialRectangle;overflow=hidden;connectable=0;fillColor=none;top=0;left=0;bottom=0;right=0;" vertex="1" parent="BQBNPFfTGPCwCgeA7Mjn-80">
          <mxGeometry width="30" height="30" as="geometry" />
        </mxCell>
        <mxCell id="BQBNPFfTGPCwCgeA7Mjn-82" value="draft bool default true" style="shape=partialRectangle;overflow=hidden;connectable=0;fillColor=none;top=0;left=0;bottom=0;right=0;align=left;spacingLeft=6;" vertex="1" parent="BQBNPFfTGPCwCgeA7Mjn-80">
          <mxGeometry x="30" width="190" height="30" as="geometry" />
        </mxCell>
        <mxCell id="BQBNPFfTGPCwCgeA7Mjn-61" value="thesis" style="shape=table;startSize=30;container=1;collapsible=1;childLayout=tableLayout;fixedRows=1;rowLines=0;fontStyle=1;align=center;resizeLast=1;" vertex="1" parent="1">
          <mxGeometry x="480" y="410" width="220" height="210" as="geometry" />
        </mxCell>
        <mxCell id="BQBNPFfTGPCwCgeA7Mjn-62" value="" style="shape=partialRectangle;collapsible=0;dropTarget=0;pointerEvents=0;fillColor=none;points=[[0,0.5],[1,0.5]];portConstraint=eastwest;top=0;left=0;right=0;bottom=1;" vertex="1" parent="BQBNPFfTGPCwCgeA7Mjn-61">
          <mxGeometry y="30" width="220" height="30" as="geometry" />
        </mxCell>
        <mxCell id="BQBNPFfTGPCwCgeA7Mjn-63" value="PK" style="shape=partialRectangle;overflow=hidden;connectable=0;fillColor=none;top=0;left=0;bottom=0;right=0;fontStyle=1;" vertex="1" parent="BQBNPFfTGPCwCgeA7Mjn-62">
          <mxGeometry width="30" height="30" as="geometry" />
        </mxCell>
        <mxCell id="BQBNPFfTGPCwCgeA7Mjn-64" value="id" style="shape=partialRectangle;overflow=hidden;connectable=0;fillColor=none;top=0;left=0;bottom=0;right=0;align=left;spacingLeft=6;fontStyle=5;" vertex="1" parent="BQBNPFfTGPCwCgeA7Mjn-62">
          <mxGeometry x="30" width="190" height="30" as="geometry" />
        </mxCell>
        <mxCell id="BQBNPFfTGPCwCgeA7Mjn-65" value="" style="shape=partialRectangle;collapsible=0;dropTarget=0;pointerEvents=0;fillColor=none;points=[[0,0.5],[1,0.5]];portConstraint=eastwest;top=0;left=0;right=0;bottom=0;" vertex="1" parent="BQBNPFfTGPCwCgeA7Mjn-61">
          <mxGeometry y="60" width="220" height="30" as="geometry" />
        </mxCell>
        <mxCell id="BQBNPFfTGPCwCgeA7Mjn-66" value="" style="shape=partialRectangle;overflow=hidden;connectable=0;fillColor=none;top=0;left=0;bottom=0;right=0;" vertex="1" parent="BQBNPFfTGPCwCgeA7Mjn-65">
          <mxGeometry width="30" height="30" as="geometry" />
        </mxCell>
        <mxCell id="BQBNPFfTGPCwCgeA7Mjn-67" value="name char(100) not null" style="shape=partialRectangle;overflow=hidden;connectable=0;fillColor=none;top=0;left=0;bottom=0;right=0;align=left;spacingLeft=6;" vertex="1" parent="BQBNPFfTGPCwCgeA7Mjn-65">
          <mxGeometry x="30" width="190" height="30" as="geometry" />
        </mxCell>
        <mxCell id="BQBNPFfTGPCwCgeA7Mjn-68" value="" style="shape=partialRectangle;collapsible=0;dropTarget=0;pointerEvents=0;fillColor=none;points=[[0,0.5],[1,0.5]];portConstraint=eastwest;top=0;left=0;right=0;bottom=0;" vertex="1" parent="BQBNPFfTGPCwCgeA7Mjn-61">
          <mxGeometry y="90" width="220" height="30" as="geometry" />
        </mxCell>
        <mxCell id="BQBNPFfTGPCwCgeA7Mjn-69" value="" style="shape=partialRectangle;overflow=hidden;connectable=0;fillColor=none;top=0;left=0;bottom=0;right=0;" vertex="1" parent="BQBNPFfTGPCwCgeA7Mjn-68">
          <mxGeometry width="30" height="30" as="geometry" />
        </mxCell>
        <mxCell id="BQBNPFfTGPCwCgeA7Mjn-70" value="short_info char(300) " style="shape=partialRectangle;overflow=hidden;connectable=0;fillColor=none;top=0;left=0;bottom=0;right=0;align=left;spacingLeft=6;" vertex="1" parent="BQBNPFfTGPCwCgeA7Mjn-68">
          <mxGeometry x="30" width="190" height="30" as="geometry" />
        </mxCell>
        <mxCell id="BQBNPFfTGPCwCgeA7Mjn-71" value="" style="shape=partialRectangle;collapsible=0;dropTarget=0;pointerEvents=0;fillColor=none;points=[[0,0.5],[1,0.5]];portConstraint=eastwest;top=0;left=0;right=0;bottom=0;" vertex="1" parent="BQBNPFfTGPCwCgeA7Mjn-61">
          <mxGeometry y="120" width="220" height="30" as="geometry" />
        </mxCell>
        <mxCell id="BQBNPFfTGPCwCgeA7Mjn-72" value="FK" style="shape=partialRectangle;overflow=hidden;connectable=0;fillColor=none;top=0;left=0;bottom=0;right=0;" vertex="1" parent="BQBNPFfTGPCwCgeA7Mjn-71">
          <mxGeometry width="30" height="30" as="geometry" />
        </mxCell>
        <mxCell id="BQBNPFfTGPCwCgeA7Mjn-73" value="user_id int not null" style="shape=partialRectangle;overflow=hidden;connectable=0;fillColor=none;top=0;left=0;bottom=0;right=0;align=left;spacingLeft=6;" vertex="1" parent="BQBNPFfTGPCwCgeA7Mjn-71">
          <mxGeometry x="30" width="190" height="30" as="geometry" />
        </mxCell>
        <mxCell id="BQBNPFfTGPCwCgeA7Mjn-74" value="" style="shape=partialRectangle;collapsible=0;dropTarget=0;pointerEvents=0;fillColor=none;points=[[0,0.5],[1,0.5]];portConstraint=eastwest;top=0;left=0;right=0;bottom=0;" vertex="1" parent="BQBNPFfTGPCwCgeA7Mjn-61">
          <mxGeometry y="150" width="220" height="30" as="geometry" />
        </mxCell>
        <mxCell id="BQBNPFfTGPCwCgeA7Mjn-75" value="FK" style="shape=partialRectangle;overflow=hidden;connectable=0;fillColor=none;top=0;left=0;bottom=0;right=0;" vertex="1" parent="BQBNPFfTGPCwCgeA7Mjn-74">
          <mxGeometry width="30" height="30" as="geometry" />
        </mxCell>
        <mxCell id="BQBNPFfTGPCwCgeA7Mjn-76" value="conference_id int" style="shape=partialRectangle;overflow=hidden;connectable=0;fillColor=none;top=0;left=0;bottom=0;right=0;align=left;spacingLeft=6;" vertex="1" parent="BQBNPFfTGPCwCgeA7Mjn-74">
          <mxGeometry x="30" width="190" height="30" as="geometry" />
        </mxCell>
        <mxCell id="BQBNPFfTGPCwCgeA7Mjn-77" value="" style="shape=partialRectangle;collapsible=0;dropTarget=0;pointerEvents=0;fillColor=none;points=[[0,0.5],[1,0.5]];portConstraint=eastwest;top=0;left=0;right=0;bottom=0;" vertex="1" parent="BQBNPFfTGPCwCgeA7Mjn-61">
          <mxGeometry y="180" width="220" height="30" as="geometry" />
        </mxCell>
        <mxCell id="BQBNPFfTGPCwCgeA7Mjn-78" value="" style="shape=partialRectangle;overflow=hidden;connectable=0;fillColor=none;top=0;left=0;bottom=0;right=0;" vertex="1" parent="BQBNPFfTGPCwCgeA7Mjn-77">
          <mxGeometry width="30" height="30" as="geometry" />
        </mxCell>
        <mxCell id="BQBNPFfTGPCwCgeA7Mjn-79" value="is_approved bool default false" style="shape=partialRectangle;overflow=hidden;connectable=0;fillColor=none;top=0;left=0;bottom=0;right=0;align=left;spacingLeft=6;" vertex="1" parent="BQBNPFfTGPCwCgeA7Mjn-77">
          <mxGeometry x="30" width="190" height="30" as="geometry" />
        </mxCell>
      </root>
    </mxGraphModel>
  </diagram>
</mxfile>
